# AST/ASF file generated using VICON BodyLanguage
# -----------------------------------------------
:version 1.10
:name VICON
:units
  mass 1.0
  length 0.45
  angle deg
:documentation
   .ast/.asf automatically generated from VICON data using
   VICON BodyBuilder and BodyLanguage model FoxedUp or BRILLIANT.MOD
:root
   order TX TY TZ RX RY RZ
   axis XYZ
   position 0 0 0  
   orientation 0 0 0 
:bonedata
  begin
     id 1 
     name lhipjoint
     direction 0.671379 -0.66392 0.329334 
     length 2.38647 
     axis 0 0 0  XYZ
  end
  begin
     id 2 
     name lfemur
     direction 0.34202 -0.939693 0  
     length 6.48179  
     axis 0 0 20  XYZ
    dof rx ry rz
    limits (-160.0 20.0)
           (-70.0 70.0)
           (-60.0 70.0)
  end
  begin
     id 3 
     name ltibia
     direction 0.34202 -0.939693 0   
     length 6.86524   
     axis 0 0 20   XYZ
    dof rx
    limits (-10.0 170.0)
  end
  begin
     id 4 
     name lfoot
     direction 0.204886 -0.562919 0.800715   
     length 1.73031   
     axis -90 7.62852e-016 20   XYZ
    dof rx rz
    limits (-45.0 90.0)
           (-70.0 20.0)
  end
  begin
     id 5 
     name ltoes
     direction 1.53548e-011 -4.21841e-011 1   
     length 0.828161   
     axis -90 7.62852e-016 20   XYZ
    dof rx
    limits (-90.0 20.0)
  end
  begin
     id 6 
     name rhipjoint
     direction -0.662732 -0.670855 0.332775   
     length 2.3618  
     axis 0 0 0  XYZ 
  end
  begin
     id 7 
     name rfemur
     direction -0.34202 -0.939693 0   
     length 6.3025   
     axis 0 0 -20   XYZ
    dof rx ry rz
    limits (-160.0 20.0)
           (-70.0 70.0)
           (-70.0 60.0)
  end
  begin
     id 8 
     name rtibia
     direction -0.34202 -0.939693 0   
     length 6.8732   
     axis 0 0 -20   XYZ
    dof rx
    limits (-10.0 170.0)
 end
 begin
     id 9 
     name rfoot
     direction -0.173856 -0.477665 0.861168   
     length 1.54784  
     axis -90 -7.62852e-016 -20   XYZ
    dof rx rz
    limits (-45.0 90.0)
           (-20.0 70.0)
  end
  begin
     id 10 
     name rtoes
     direction -1.53562e-011 -4.21802e-011 1   
     length 0.759618   
     axis -90 -7.62852e-016 -20   XYZ
    dof rx
    limits (-90.0 20.0)
  end
  begin
     id 11 
     name lowerback
     direction -0.0278357 0.999497 -0.0151789   
     length 1.97203   
     axis 0 0 0   XYZ
    dof rx ry rz
    limits (-20.0 45.0)
           (-30.0 30.0)
           (-30.0 30.0)
  end
  begin
     id 12 
     name upperback
     direction -0.00360622 0.997542 0.0699804   
     length 1.94709   
     axis 0 0 0   XYZ
    dof rx ry rz
    limits (-20.0 45.0)
           (-30.0 30.0)
           (-30.0 30.0)
  end
  begin
     id 13 
     name thorax
     direction 0.00907706 0.997048 0.0762461   
     length 1.95722   
     axis 0 0 0   XYZ
    dof rx ry rz
    limits (-20.0 45.0)
           (-30.0 30.0)
           (-30.0 30.0)
  end
  begin
     id 14 
     name lowerneck
     direction -0.0481835 0.99872 -0.0153927   
     length 1.63078   
     axis 0 0 0   XYZ
    dof rx ry rz
    limits (-20.0 45.0)
           (-30.0 30.0)
           (-30.0 30.0)
  end
  begin
     id 15 
     name upperneck
     direction 0.0859716 0.979226 -0.183644   
     length 1.62591   
     axis 0 0 0   XYZ
    dof rx ry rz
    limits (-20.0 45.0)
           (-30.0 30.0)
           (-30.0 30.0)
  end
  begin
     id 16
     name head
     direction 0.0324821 0.997629 -0.0606773  
     length 1.64811  
     axis 0 0 0   XYZ
    dof rx ry rz
    limits (-20.0 45.0)
           (-30.0 30.0)
           (-30.0 30.0)
  end
  begin
     id 17 
     name lclavicle
     direction 0.939609 0.311019 0.142835  
     length 3.70647  
     axis 0 0 0   XYZ
    dof ry rz
    limits (-20.0 10.0)
           (0.0 20.0)
  end
  begin
     id 18 
     name lhumerus
     direction 1 -4.48963e-011 -1.59838e-027   
     length 4.59207   
     axis 180 -30 -90   XYZ
    dof rx ry rz
    limits (-60.0 90.0)
           (-90.0 90.0)
           (-90.0 90.0)
  end
  begin
     id 19
     name lradius
     direction 1 -4.48957e-011 -1.3483e-026   
     length 2.98109   
     axis 180 -30 -90   XYZ
    dof rx
    limits (-10.0 170.0)
  end
  begin
     id 20
     name lwrist
     direction 1 -4.48954e-011 -3.11579e-026   
     length 1.49055   
     axis 2.00652e-014 90 90   XYZ
    dof ry
    limits (-180.0 0.0)
 end
  begin
     id 21 
     name lhand
     direction 1 -4.4911e-011 -6.23158e-026   
     length 0.480203   
     axis 3.97628e-014 90 90   XYZ
    dof rx rz
    limits (-90.0 90.0)
           (-45.0 45.0)
  end
  begin
     id 22 
     name lfingers
     direction 1 -4.48893e-011 -1.24632e-025   
     length 0.387152   
     axis 7.95256e-014 90 90   XYZ
    dof rx
    limits (0.0 90.0)
  end
  begin
     id 23
     name lthumb
     direction 0.707107 -6.35013e-011 0.707107   
     length 0.555875   
     axis -90 45 2.85299e-015   XYZ
    dof rx rz
    limits (-45.0 45.0)
           (-45.0 45.0)
  end
  begin
     id 24 
     name rclavicle
     direction -0.950396 0.30392 0.0661859   
     length 3.70894  
     axis 0 0 0   XYZ 
    dof ry rz
    limits (-10.0 20.0)
           (-20.0 0.0)
  end
  begin
     id 25 
     name rhumerus
     direction -1 -4.48957e-011 -2.96677e-027  
     length 4.76508   
     axis 180 30 90   XYZ
    dof rx ry rz
    limits (-90.0 60.0)
           (-90.0 90.0)
           (-90.0 90.0)
  end
  begin
     id 26 
     name rradius
     direction -1 -4.48974e-011 -1.44501e-026   
     length 2.78902   
     axis 180 30 90   XYZ
    dof rx
    limits (-10.0 170.0)
  end
  begin
     id 27 
     name rwrist
     direction -1 -4.48978e-011 -3.11579e-026   
     length 1.39451   
     axis 2.00652e-014 -90 -90   XYZ
    dof ry
    limits (-180.0 0.0)
  end
  begin
     id 28
     name rhand
     direction -1 -4.48956e-011 -6.23158e-026   
     length 0.721303   
     axis 3.97628e-014 -90 -90   XYZ
    dof rx rz
    limits (-90.0 90.0)
           (-45.0 45.0)
  end
  begin
     id 29
     name rfingers
     direction -1 -4.4899e-011 -1.24632e-025   
     length 0.581533   
     axis 7.95256e-014 -90 -90   XYZ
    dof rx
    limits (0.0 90.0)
  end
  begin
     id 30
     name rthumb
     direction -0.707107 -6.34911e-011 0.707107   
     length 0.834968   
     axis -90 -45 -2.85299e-015   XYZ
    dof rx rz
    limits (-45.0 45.0)
           (-45.0 45.0)
  end
:hierarchy
  begin
    root lhipjoint rhipjoint lowerback
    lhipjoint lfemur
    lfemur ltibia
    ltibia lfoot
    lfoot ltoes
    rhipjoint rfemur
    rfemur rtibia
    rtibia rfoot
    rfoot rtoes
    lowerback upperback
    upperback thorax
    thorax lowerneck lclavicle rclavicle
    lowerneck upperneck
    upperneck head
    lclavicle lhumerus
    lhumerus lradius
    lradius lwrist
    lwrist lhand lthumb
    lhand lfingers
    rclavicle rhumerus
    rhumerus rradius
    rradius rwrist
    rwrist rhand rthumb
    rhand rfingers
  end

#!OML:ASF I:\salsa\salsa 7_09\Patient 1\Session 1\dancerfemale.ASF
:FULLY-SPECIFIED
:DEGREES
321
root 14.0258 15.5221 0.396002 -125.058 -77.6148 121.689
lowerback 11.1874 -3.72292 -0.663475
upperback -3.69128 -6.03662 -6.86668
thorax -11.0456 -3.25406 -5.84461
lowerneck -4.82312 -0.700044 -8.78152
upperneck 6.25369 -1.44504 14.3447
head 2.79356 -0.489577 5.786
rclavicle -7.43455e-014 -7.23576e-014
rhumerus -56.4124 12.83 -76.9594
rradius 78.4226
rwrist 14.6617
rhand -5.06407 269.174
rfingers 7.12502
rthumb 20.7318 61.9136
lclavicle -7.43455e-014 -7.23576e-014
lhumerus -2.0854 10.806 61.9601
lradius 94.6742
lwrist 31.8724
lhand 5.10559 43.0953
lfingers 7.12502
lthumb 30.4707 70.5963
rfemur -23.6883 -2.18779 6.60527
rtibia 69.468
rfoot -16.1837 -7.31938
rtoes -17.8112
lfemur -11.2315 6.7676 -37.3028
ltibia 36.7656
lfoot -25.9124 2.62029
ltoes -9.91662
322
root 14.067 15.5327 0.346854 -120.988 -78.4483 118.365
lowerback 10.4016 -4.26981 0.170077
upperback -3.76512 -6.64468 -6.9976
thorax -10.8518 -3.62013 -6.37444
lowerneck -5.06423 -0.531341 -8.92898
upperneck 6.24768 -1.21764 14.6804
head 2.8076 -0.362385 5.9279
rclavicle 2.42517e-014 -8.74653e-015
rhumerus -56.6528 12.6156 -74.7373
rradius 79.8177
rwrist 13.9037
rhand -4.89878 269.409
rfingers 7.12502
rthumb 20.8907 61.6956
lclavicle 2.42517e-014 -8.74653e-015
lhumerus -2.65447 11.3428 61.3459
lradius 95.6803
lwrist 33.5331
lhand 6.03945 43.4143
lfingers 7.12502
lthumb 31.3609 70.7463
rfemur -22.6559 -1.69171 7.33835
rtibia 69.3293
rfoot -15.4569 -8.02643
rtoes -15.763
lfemur -12.0418 7.05027 -36.6449
ltibia 36.6322
lfoot -25.7354 1.23877
ltoes -11.7671
323
root 14.0746 15.563 0.304097 -117.135 -78.8385 115.009
lowerback 9.50511 -4.65688 0.753759
upperback -3.76554 -7.09482 -7.2349
thorax -10.4934 -3.8997 -6.93084
lowerneck -5.0279 -0.399897 -8.80721
upperneck 6.01194 -1.02764 14.6986
head 2.70888 -0.271007 5.91711
rclavicle -3.01656e-014 4.05521e-014
rhumerus -56.8485 12.4684 -72.8119
rradius 80.7861
rwrist 13.189
rhand -5.03728 269.426
rfingers 7.12502
rthumb 20.7576 61.6643
lclavicle -3.01656e-014 4.05521e-014
lhumerus -3.24504 11.7399 60.551
lradius 96.5522
lwrist 35.2105
lhand 6.68607 43.3404
lfingers 7.12502
lthumb 31.9768 70.551
rfemur -20.9115 -1.20112 7.58488
rtibia 68.3925
rfoot -14.9091 -8.25094
rtoes -14.9364
lfemur -12.4405 6.91826 -36.446
ltibia 36.5565
lfoot -25.9178 0.617862
ltoes -13.5898
324
root 14.0941 15.596 0.253958 -114.011 -79.3421 112.521
lowerback 8.63817 -4.9652 1.33844
upperback -3.79409 -7.43019 -7.333
thorax -10.1583 -4.11293 -7.364
lowerneck -5.06283 -0.325528 -8.63919
upperneck 5.73175 -0.908218 14.6917
head 2.61812 -0.212722 5.88728
rclavicle -1.20265e-014 3.89618e-014
rhumerus -56.7342 12.1351 -71.0803
rradius 81.1981
rwrist 12.8699
rhand -5.1963 268.325
rfingers 7.12502
rthumb 20.6048 62.7486
lclavicle -1.20265e-014 3.89618e-014
lhumerus -3.84573 12.2104 59.9047
lradius 97.3996
lwrist 36.5359
lhand 6.80564 43.1612
lfingers 7.12502
lthumb 32.0907 70.3489
rfemur -19.1866 -0.604082 8.21555
rtibia 66.6708
rfoot -14.3875 -8.51838
rtoes -14.7972
lfemur -13.0188 6.30438 -36.0313
ltibia 36.4244
lfoot -25.9581 0.481039
ltoes -14.5292
325
root 14.1259 15.6235 0.201523 -112.716 -79.8424 111.817
lowerback 8.00453 -5.1128 1.81571
upperback -3.81088 -7.54915 -7.27271
thorax -9.87892 -4.19846 -7.59213
lowerneck -5.30233 -0.28758 -8.72815
upperneck 5.53758 -0.83315 14.9201
head 2.5943 -0.166006 5.97705
rclavicle 5.51627e-014 2.46493e-014
rhumerus -56.363 11.5432 -69.4339
rradius 81.1232
rwrist 13.0035
rhand -5.13516 266.355
rfingers 7.12502
rthumb 20.6635 64.7252
lclavicle 5.51627e-014 2.46493e-014
lhumerus -4.44239 12.9779 59.7087
lradius 98.4339
lwrist 37.4571
lhand 7.25514 43.4784
lfingers 7.12502
lthumb 32.5185 70.5789
rfemur -17.3282 0.327694 9.11799
rtibia 64.0191
rfoot -13.1978 -9.54707
rtoes -13.5966
lfemur -13.6381 5.47799 -35.4585
ltibia 36.3314
lfoot -25.9155 0.776066
ltoes -15.5766
326
root 14.1341 15.6488 0.145174 -111.228 -79.7086 110.74
lowerback 7.39076 -5.07671 1.55895
upperback -3.87003 -7.53697 -7.35555
thorax -9.55768 -4.18443 -7.5841
lowerneck -5.37637 -0.296899 -8.86103
upperneck 5.43943 -0.843167 15.1883
head 2.58099 -0.166411 6.08454
rclavicle -1.63997e-014 3.33958e-014
rhumerus -56.125 10.7435 -68.0656
rradius 80.6
rwrist 13.6626
rhand -5.3108 264.784
rfingers 7.12502
rthumb 20.4948 66.2778
lclavicle -1.63997e-014 3.33958e-014
lhumerus -4.99146 13.5781 59.5971
lradius 99.4487
lwrist 38.1111
lhand 7.98799 44.106
lfingers 7.12502
lthumb 33.2156 71.0605
rfemur -14.8823 1.12442 9.24672
rtibia 60.5218
rfoot -13.3891 -9.3452
rtoes -14.7677
lfemur -14.0018 4.69317 -35.4994
ltibia 36.4917
lfoot -26.2545 1.10279
ltoes -15.7413
327
root 14.1854 15.6621 0.0763561 -111.524 -80.0653 111.651
lowerback 7.38479 -5.03019 1.70949
upperback -4.21033 -7.47137 -7.22572
thorax -9.92271 -4.17067 -7.53338
lowerneck -5.25902 -0.326982 -8.94916
upperneck 5.37937 -0.904772 15.4767
head 2.55272 -0.198911 6.18851
rclavicle -6.56983e-014 5.80451e-014
rhumerus -56.099 10.0758 -67.1953
rradius 80.0336
rwrist 14.2521
rhand -5.7861 264.512
rfingers 7.12502
rthumb 20.038 66.5009
lclavicle -6.56983e-014 5.80451e-014
lhumerus -5.36494 13.9317 59.3578
lradius 100.068
lwrist 38.3406
lhand 8.89134 44.6091
lfingers 7.12502
lthumb 34.0741 71.3764
rfemur -12.9657 2.02339 10.2316
rtibia 56.3979
rfoot -15.907 -9.77223
rtoes -19.8901
lfemur -15.0156 3.87268 -34.8191
ltibia 36.9486
lfoot -26.3102 1.49679
ltoes -15.8497
328
root 14.2358 15.6704 0.0105097 -113.794 -80.6899 114.55
lowerback 7.2861 -4.8809 2.21323
upperback -4.47774 -7.19689 -6.98625
thorax -10.1488 -4.06636 -7.61091
lowerneck -5.01623 -0.41733 -8.87796
upperneck 5.09514 -1.0249 15.5495
head 2.44435 -0.272205 6.19096
rclavicle 3.37934e-014 5.1684e-014
rhumerus -56.0694 9.38039 -66.667
rradius 79.5313
rwrist 14.5425
rhand -6.06531 265.087
rfingers 7.12502
rthumb 19.7696 65.8988
lclavicle 3.37934e-014 5.1684e-014
lhumerus -6.03823 13.8604 58.9763
lradius 100.274
lwrist 38.4164
lhand 9.9502 44.2335
lfingers 7.12502
lthumb 35.0791 70.771
rfemur -10.9302 2.62542 11.5674
rtibia 52.0243
rfoot -18.8739 -10.5775
rtoes -20.4608
lfemur -16.1276 3.08502 -33.7437
ltibia 37.5399
lfoot -26.1421 2.1404
ltoes -17.7925
329
root 14.2757 15.6964 -0.051516 -116.936 -81.1063 118.175
lowerback 7.0724 -4.56487 2.33453
upperback -4.54603 -6.70467 -6.66245
thorax -9.9803 -3.80842 -7.42551
lowerneck -4.74587 -0.606763 -8.81242
upperneck 4.53034 -1.2224 15.3516
head 2.25843 -0.394815 6.10333
rclavicle 4.6118e-014 -3.97569e-014
rhumerus -55.7167 8.33725 -66.1453
rradius 78.8448
rwrist 14.8614
rhand -6.01876 265.479
rfingers 7.12502
rthumb 19.8143 65.5107
lclavicle 4.6118e-014 -3.97569e-014
lhumerus -6.09936 13.5814 59.0663
lradius 100.669
lwrist 38.477
lhand 10.0746 44.4529
lfingers 7.12502
lthumb 35.1971 70.9627
rfemur -8.88381 2.7086 12.6145
rtibia 47.9168
rfoot -19.8321 -11.6637
rtoes -24.3301
lfemur -17.1981 2.94702 -32.7722
ltibia 38.5428
lfoot -26.2452 2.33259
ltoes -19.467
